# xmcd CD database file
#
# Track frame offsets:
#	150
#	16328
#	32832
#	51512
#	68669
#	82236
#	92847
#	103793
#	112762
#	124585
#	135832
#	145826
#	157098
#	170678
#	185105
#	202834
#	216569
#	228166
#	239695
#
# Disc length: 3418 seconds
#
# Revision: 0
# Processed by: cddbd v1.5.2PL0 Copyright (c) Steve Scherf et al.
# Submitted via: ACXtractor (MTCDDB.DLL V2003.12.21)
#
DISCID=120d5813
DTITLE=Frankie Lane and Jimmy Rodgers - Greatest Hits
DYEAR=1978
DGENRE=Country
TTITLE0=Rose Ellen
TTITLE1=Old Enough(to be your Father)
TTITLE2=Makin Whoopee
TTITLE3=If I Never Sing Another Song
TTITLE4=Way Down Younder in New Orleans/ Joe Stafford
TTITLE5=I Heard The Angels Sing /The 4 Lads
TTITLE6=Floating down to cotton Town/ Joe Stafford
TTITLE7=Sugarbush/Doris Day
TTITLE8=In the Cool Cool Of The Evening - Joe Stafford
TTITLE9=How Lovely Cooks the Meat/ Doris Day
TTITLE10=High Society/ Joe Stafford
TTITLE11=Love Is a Golden Ring
TTITLE12=Evertime I Sing a Love song
TTITLE13=Shoveling Coal Missouri
TTITLE14=Just A Little time To Say Goodbye
TTITLE15=Hold Back the World
TTITLE16=It's My Time
TTITLE17=The World I Use to Know
TTITLE18=I Have You
EXTD=ID3G:   2 YEAR: 1978
EXTT0=
EXTT1=
EXTT2=
EXTT3=
EXTT4=
EXTT5=
EXTT6=
EXTT7=
EXTT8=
EXTT9=
EXTT10=
EXTT11=
EXTT12=
EXTT13=
EXTT14=
EXTT15=
EXTT16=
EXTT17=
EXTT18=
PLAYORDER=
